<svg width="38" height="48" viewBox="0 0 38 48" fill="none" xmlns="http://www.w3.org/2000/svg">
<path d="M0.986133 28.3526C1.45365 27.8937 2.20438 27.9004 2.66421 28.3679L18.1538 44.1465C18.6185 44.6198 19.3817 44.6198 19.8473 44.1465L35.3349 28.3679C35.7938 27.9004 36.5445 27.8937 37.0121 28.3526C37.4796 28.8115 37.4863 29.5622 37.0274 30.0297L19.8453 47.5334C19.3807 48.0067 18.6175 48.0067 18.1519 47.5334L0.970775 30.0297C0.511894 29.5622 0.518611 28.8115 0.986133 28.3526Z" fill="#DEA01E"/>
<path d="M17.8554 45.5164L17.8554 18.6816C17.8554 18.0268 18.3863 17.495 19.042 17.495C19.6967 17.495 20.2285 18.0259 20.2285 18.6816L20.2285 45.5164C20.2285 46.1712 19.6976 46.703 19.042 46.703C18.3863 46.703 17.8554 46.1721 17.8554 45.5164Z" fill="#DEA01E"/>
<path d="M17.7909 11.7049V1.29655C17.7909 0.641826 18.3218 0.109985 18.9775 0.109985C19.6322 0.109985 20.1641 0.640866 20.1641 1.29655V11.7049C20.1641 12.3596 19.6332 12.8914 18.9775 12.8914C18.3218 12.8914 17.7909 12.3605 17.7909 11.7049Z" fill="#DEA01E"/>
</svg>
