<svg width="40" height="40" viewBox="0 0 40 40" fill="none" xmlns="http://www.w3.org/2000/svg">
<path d="M36.6668 40.0001L27.9168 31.6667L28.9668 35.0001H7.50016C6.39509 35.0001 5.33529 34.5611 4.55388 33.7797C3.77248 32.9983 3.3335 31.9385 3.3335 30.8334V5.83341C3.3335 4.72835 3.77248 3.66854 4.55388 2.88714C5.33529 2.10573 6.39509 1.66675 7.50016 1.66675H32.5002C33.6052 1.66675 34.665 2.10573 35.4464 2.88714C36.2278 3.66854 36.6668 4.72835 36.6668 5.83341V40.0001ZM20.0002 11.3334C15.5335 11.3334 12.4002 13.2501 12.4002 13.2501C14.1168 11.7167 17.1168 10.8334 17.1168 10.8334L16.8335 10.5501C14.0168 10.6001 11.4668 12.5501 11.4668 12.5501C8.60016 18.5334 8.7835 23.7001 8.7835 23.7001C11.1168 26.7167 14.5835 26.5001 14.5835 26.5001L15.7668 25.0001C13.6835 24.5501 12.3668 22.7001 12.3668 22.7001C12.3668 22.7001 15.5002 24.8334 20.0002 24.8334C24.5002 24.8334 27.6335 22.7001 27.6335 22.7001C27.6335 22.7001 26.3168 24.5501 24.2335 25.0001L25.4168 26.5001C25.4168 26.5001 28.8835 26.7167 31.2168 23.7001C31.2168 23.7001 31.4002 18.5334 28.5335 12.5501C28.5335 12.5501 25.9835 10.6001 23.1668 10.5501L22.8835 10.8334C22.8835 10.8334 25.8835 11.7167 27.6002 13.2501C27.6002 13.2501 24.4668 11.3334 20.0002 11.3334V11.3334ZM16.5502 17.6501C17.6335 17.6501 18.5168 18.6001 18.5002 19.7667C18.5002 20.9167 17.6335 21.8834 16.5502 21.8834C15.4835 21.8834 14.6168 20.9167 14.6168 19.7667C14.6168 18.6001 15.4668 17.6501 16.5502 17.6501ZM23.5002 17.6501C24.5835 17.6501 25.4502 18.6001 25.4502 19.7667C25.4502 20.9167 24.5835 21.8834 23.5002 21.8834C22.4335 21.8834 21.5668 20.9167 21.5668 19.7667C21.5668 18.6001 22.4168 17.6501 23.5002 17.6501Z" fill="#212D6D"/>
</svg>
