<svg width="172" height="162" viewBox="0 0 172 162" fill="none" xmlns="http://www.w3.org/2000/svg">
<path d="M164.744 92.5829C165.494 105.5 159.577 117.916 148.994 125.5L155.41 137.916C157.327 141.666 157.577 146.083 155.91 150C154.327 153.916 151.077 157 147.077 158.333L140.494 160.416C137.752 161.34 134.793 161.395 132.019 160.575C129.245 159.755 126.792 158.099 124.994 155.833L107.327 135C99.9103 133.75 92.9103 130.583 86.9936 125.833C82.827 127.083 78.6603 127.75 74.4936 127.75C67.1603 127.75 59.827 125.5 53.6603 121.166C49.2436 122.5 44.7436 123.083 40.1603 123C33.577 123.083 27.077 121.75 20.9936 119.25C15.1381 116.637 10.1348 112.431 6.55431 107.112C2.97384 101.793 0.960392 95.5745 0.74364 89.1663C0.0769738 83.1663 1.07697 77.0829 3.66031 71.5829C1.24364 65.3329 0.99364 58.4996 3.07697 52.1663C6.16031 44.2496 11.9936 37.6663 19.2436 33.4996C24.077 19.4163 37.6603 9.99962 52.577 10.9996C65.9103 -1.50038 86.327 -2.83371 101.16 7.91629C104.66 6.99962 108.327 6.49962 111.994 6.49962C123.327 6.24962 134.077 11.2496 141.16 20.1663C158.16 24.5829 170.327 39.7496 170.994 57.4163C171.41 66.6663 168.91 75.7496 163.827 83.4996C164.41 86.4996 164.744 89.4996 164.744 92.5829ZM123.077 80.8329C127.827 81.4163 131.577 84.9996 131.577 89.7496C131.577 91.9597 130.699 94.0794 129.136 95.6422C127.573 97.205 125.454 98.0829 123.244 98.0829H117.994C115.327 105.583 110.66 112.166 104.494 117.166C106.577 117.916 108.744 118.333 110.91 118.916C153.66 118.333 148.66 92.2496 148.66 91.8329C148.439 86.1087 145.953 80.7068 141.749 76.8155C137.545 72.9241 131.968 70.8621 126.244 71.0829C124.033 71.0829 121.914 70.205 120.351 68.6422C118.788 67.0794 117.91 64.9597 117.91 62.7496C117.91 60.5395 118.788 58.4199 120.351 56.8571C121.914 55.2943 124.033 54.4163 126.244 54.4163C136.494 54.6663 146.327 58.4996 153.994 65.2496C154.41 62.8329 154.66 60.3329 154.66 57.8329C154.16 47.4996 149.494 38.4996 130.744 36.7496C120.327 12.083 94.077 25.7496 94.077 33.4163C93.827 35.333 95.827 39.4163 96.1603 39.6663C98.3704 39.6663 100.49 40.5443 102.053 42.1071C103.616 43.6699 104.494 45.7895 104.494 47.9996C104.494 52.5829 100.744 56.3329 96.1603 56.3329C91.7436 56.1663 87.577 54.4996 84.2436 51.6663C80.2436 54.2496 75.6603 55.8329 70.9103 56.3329C66.1603 56.7496 62.2436 53.4163 61.9936 48.8329C61.8401 47.7444 61.9107 46.6359 62.2011 45.5756C62.4915 44.5153 62.9955 43.5256 63.6822 42.6672C64.369 41.8087 65.224 41.0997 66.1946 40.5837C67.1653 40.0676 68.2313 39.7554 69.327 39.6663C70.6603 39.4996 77.1603 38.4996 77.1603 33.2496C77.1603 27.7496 79.2436 22.4996 82.827 18.333C75.1603 16.2496 66.9103 18.9996 58.577 29.083C43.2436 26.6663 36.9936 28.7496 32.4103 44.9996C24.4936 48.9163 20.327 51.6663 18.4936 59.9996C27.4936 58.1663 36.7436 58.9163 45.327 62.0829C49.4936 63.6663 51.827 68.3329 50.2436 72.8329C48.6603 77.1663 43.827 79.3329 39.4936 77.7496C33.4103 75.0829 26.577 74.9163 20.327 77.2496C17.6603 79.4996 17.6603 84.1663 17.6603 87.8329C17.6603 93.9996 20.7436 99.7496 25.9936 103.083C30.4103 105.333 35.327 106.5 40.2436 106.416C38.9936 104.25 37.9103 102 36.9936 99.6663C36.3376 97.5252 36.5374 95.2132 37.5511 93.2165C38.5648 91.2198 40.3133 89.6939 42.4289 88.96C44.5445 88.226 46.8622 88.341 48.8947 89.2809C50.9272 90.2208 52.516 91.9123 53.327 93.9996C56.6603 103.5 65.1603 110 75.1603 111.083C86.577 110.5 96.7436 103.75 101.744 93.3329C103.66 81.8329 112.91 80.8329 123.077 80.8329ZM139.744 143.083L134.577 132.25L128.66 133.583L136.994 144L139.744 143.083ZM100.994 71.3329C101.066 69.2041 100.321 67.1283 98.9102 65.532C97.4999 63.9357 95.5318 62.9401 93.4103 62.7496C87.4936 62.4163 81.7436 64.4163 77.327 68.3329C72.577 73.1663 70.077 79.8329 70.327 86.5829C70.327 88.7931 71.2049 90.9127 72.7678 92.4755C74.3306 94.0383 76.4502 94.9163 78.6603 94.9163C83.4103 94.9163 86.9936 91.1663 86.9936 86.5829C86.9936 84.3329 87.577 82.0829 88.9103 80.2496C89.9103 79.4163 91.1603 78.9996 92.4936 78.9996C97.077 79.2496 100.994 75.8329 100.994 71.3329Z" fill="url(#paint0_linear)"/>
<defs>
<linearGradient id="paint0_linear" x1="85.7907" y1="0.660645" x2="85.7907" y2="161.152" gradientUnits="userSpaceOnUse">
<stop stop-color="#101D2C"/>
<stop offset="1" stop-color="#DEA01E"/>
</linearGradient>
</defs>
</svg>
