<svg width="171" height="176" viewBox="0 0 171 176" fill="none" xmlns="http://www.w3.org/2000/svg">
<path d="M113.502 137.75C124.752 137.75 133.919 128.583 133.919 117.333C133.919 106.083 124.752 96.9167 113.502 96.9167C102.169 96.9167 93.0856 106.083 93.0856 117.333C93.0856 128.583 102.169 137.75 113.502 137.75ZM156.836 123L169.169 132.667C170.252 133.583 170.586 135.083 169.836 136.417L158.169 156.583C157.819 157.185 157.266 157.642 156.608 157.871C155.951 158.1 155.234 158.087 154.586 157.833L140.086 152C137.086 154.333 133.752 156.25 130.252 157.75L128.002 173.167C127.836 174.583 126.586 175.667 125.169 175.667H101.836C100.336 175.667 99.1689 174.583 98.9189 173.167L96.7523 157.75C93.1689 156.25 89.9189 154.333 86.9189 152L72.3356 157.833C71.0856 158.333 69.5023 157.833 68.8356 156.583L57.1689 136.417C56.8139 135.815 56.686 135.106 56.8082 134.418C56.9305 133.731 57.2949 133.109 57.8356 132.667L70.1689 123L69.7523 117.333L70.1689 111.583L57.8356 102C57.2978 101.556 56.9355 100.934 56.8134 100.248C56.6913 99.5606 56.8173 98.8527 57.1689 98.2501L68.8356 78.0834C69.5023 76.7501 71.0856 76.2501 72.3356 76.7501L86.9189 82.6667C89.9189 80.3334 93.1689 78.3334 96.7523 76.9167L98.9189 61.4167C99.1689 60.0834 100.336 59.0001 101.836 59.0001H125.169C126.586 59.0001 127.836 60.0834 128.002 61.4167L130.252 76.9167C133.752 78.3334 137.086 80.3334 140.086 82.6667L154.586 76.7501C156.002 76.2501 157.419 76.7501 158.169 78.0834L169.836 98.2501C170.586 99.5001 170.252 101.083 169.169 102L156.836 111.583L157.252 117.333L156.836 123ZM36.7522 51.2501C44.0023 51.2501 49.8356 45.4167 49.8356 38.1667C49.8356 30.9167 44.0023 25.0001 36.7522 25.0001C33.2602 25.0001 29.9112 26.3873 27.442 28.8565C24.9728 31.3257 23.5856 34.6747 23.5856 38.1667C23.5856 45.4167 29.5022 51.2501 36.7522 51.2501ZM64.5856 41.8334L72.6689 48.0001C73.2523 48.5834 73.4189 49.5834 72.9189 50.4167L65.4189 63.4167C65.0023 64.2501 64.0022 64.5834 63.1689 64.2501L53.8356 60.5001L47.6689 64.1667L46.0856 74.0834C45.9189 75.0001 45.1689 75.6667 44.2523 75.6667H29.2522C28.2522 75.6667 27.5022 75.0001 27.3356 74.0834L26.0022 64.1667L19.6689 60.5001L10.1689 64.2501C9.41891 64.5834 8.50225 64.2501 8.00225 63.4167L0.502245 50.4167C0.00224495 49.5834 0.252247 48.5834 0.918913 48.0001L8.83558 41.8334L8.58558 38.1667L8.83558 34.5001L0.918913 28.3334C0.576588 28.0438 0.347203 27.6428 0.271011 27.2009C0.194819 26.759 0.276685 26.3043 0.502245 25.9167L8.00225 12.9167C8.50225 12.0834 9.41891 11.7501 10.1689 12.0834L19.5856 15.8334L26.0022 12.1667L27.3356 2.25008C27.5022 1.33342 28.2522 0.666748 29.2522 0.666748H44.2523C45.1689 0.666748 45.9189 1.33342 46.0856 2.25008L47.6689 12.1667L53.8356 15.8334L63.1689 12.0834C64.0022 11.7501 65.0023 12.0834 65.4189 12.9167L72.9189 25.9167C73.4189 26.7501 73.2523 27.7501 72.6689 28.3334L64.5856 34.5001L64.8356 38.1667L64.5856 41.8334Z" fill="url(#paint0_linear)"/>
<defs>
<linearGradient id="paint0_linear" x1="85.2392" y1="0.666748" x2="85.2392" y2="175.667" gradientUnits="userSpaceOnUse">
<stop/>
<stop offset="1" stop-color="#DEA01E"/>
</linearGradient>
</defs>
</svg>
