<svg width="200" height="122" viewBox="0 0 200 122" fill="none" xmlns="http://www.w3.org/2000/svg">
<path d="M100 0.833374C107.735 0.833374 115.154 3.90628 120.624 9.37609C126.094 14.8459 129.167 22.2646 129.167 30C129.167 37.7355 126.094 45.1542 120.624 50.624C115.154 56.0938 107.735 59.1667 100 59.1667C92.2645 59.1667 84.8459 56.0938 79.3761 50.624C73.9062 45.1542 70.8333 37.7355 70.8333 30C70.8333 22.2646 73.9062 14.8459 79.3761 9.37609C84.8459 3.90628 92.2645 0.833374 100 0.833374ZM41.6667 21.6667C46.3333 21.6667 50.6667 22.9167 54.4167 25.1667C53.1667 37.0834 56.6667 48.9167 63.8333 58.1667C59.6667 66.1667 51.3333 71.6667 41.6667 71.6667C35.0363 71.6667 28.6774 69.0328 23.989 64.3444C19.3006 59.656 16.6667 53.2971 16.6667 46.6667C16.6667 40.0363 19.3006 33.6774 23.989 28.989C28.6774 24.3006 35.0363 21.6667 41.6667 21.6667ZM158.333 21.6667C164.964 21.6667 171.323 24.3006 176.011 28.989C180.699 33.6774 183.333 40.0363 183.333 46.6667C183.333 53.2971 180.699 59.656 176.011 64.3444C171.323 69.0328 164.964 71.6667 158.333 71.6667C148.667 71.6667 140.333 66.1667 136.167 58.1667C143.432 48.7869 146.805 36.9683 145.583 25.1667C149.333 22.9167 153.667 21.6667 158.333 21.6667ZM45.8333 107.083C45.8333 89.8334 70.0833 75.8334 100 75.8334C129.917 75.8334 154.167 89.8334 154.167 107.083V121.667H45.8333V107.083ZM0 121.667V109.167C0 97.5834 15.75 87.8334 37.0833 85C32.1667 90.6667 29.1667 98.5 29.1667 107.083V121.667H0ZM200 121.667H170.833V107.083C170.833 98.5 167.833 90.6667 162.917 85C184.25 87.8334 200 97.5834 200 109.167V121.667Z" fill="url(#paint0_linear)"/>
<defs>
<linearGradient id="paint0_linear" x1="100" y1="0.833374" x2="100" y2="121.667" gradientUnits="userSpaceOnUse">
<stop stop-color="#101D2C"/>
<stop offset="1" stop-color="#DEA01E"/>
</linearGradient>
</defs>
</svg>
